first trial
nRows=16
nColumns=38

# SIMM Motion File Header:
name Sujet_06_velo_80.mvnx
datacolumns 38
datarows 16
otherdata 1
range 3.9500 4.2000
endheader
time pelvis_tilt  pelvis_list  pelvis_rotation  pelvis_tx  pelvis_ty  pelvis_tz  hip_flexion_r  hip_adduction_r  hip_rotation_r  knee_angle_r  ankle_angle_r  subtalar_angle_r  mtp_angle_r  hip_flexion_l  hip_adduction_l  hip_rotation_l  knee_angle_l  ankle_angle_l  subtalar_angle_l  mtp_angle_l  lumbar_extension  lumbar_bending  lumbar_rotation  arm_flex_r  arm_add_r  arm_rot_r  elbow_flex_r  pro_sup_r  wrist_flex_r  wrist_dev_r  arm_flex_l  arm_add_l  arm_rot_l  elbow_flex_l  pro_sup_l  wrist_flex_l  wrist_dev_l
3.9500	-7.8973	2.8768	-11.9289	0.0000	1.2500	-0.0000	76.6286	8.5843	-3.9426	93.9325	13.2284	-11.7174	0.0000	41.6076	-5.8164	-6.8618	62.0544	-13.9781	3.4327	-0.0000	-15.2894	-0.7476	-0.0402	86.8770	8.6554	13.4071	7.5423	115.5468	-26.5507	-11.2575	86.4366	-8.2015	27.0821	16.8681	122.1637	-18.8588	-6.4390	
3.9670	-7.8754	2.9061	-11.9861	0.0000	1.2500	-0.0000	74.7003	8.3252	-4.3033	89.0939	12.6259	-11.7732	0.0000	43.4446	-6.2928	-6.2628	67.1582	-13.1345	3.0976	-0.0000	-15.3184	-0.8259	-0.0015	86.8999	8.7493	13.2587	7.5288	115.6032	-26.5689	-11.2428	86.5371	-8.1435	27.1928	16.7998	122.0237	-18.8366	-6.4484	
3.9830	-7.8755	2.9196	-11.9876	0.0000	1.2500	-0.0000	72.3100	7.8901	-4.7051	83.8536	11.8189	-11.9218	0.0000	45.5380	-6.7704	-5.6930	72.4070	-12.1310	2.5457	0.0000	-15.3386	-0.8927	0.0293	86.9043	8.8471	13.0362	7.5297	115.6755	-26.6999	-11.3023	86.7225	-8.0811	27.2549	16.7692	121.9612	-18.8196	-6.4572	
4.0000	-7.8845	2.9313	-11.9241	0.0000	1.2500	-0.0000	69.5686	7.3311	-5.1593	78.4656	10.8948	-11.9758	0.0000	47.8362	-7.2316	-5.1462	77.5422	-11.1885	2.1215	-0.0000	-15.3556	-0.9549	0.0472	86.9272	8.9680	12.7026	7.4529	115.6664	-26.9426	-11.4410	87.0003	-8.0104	27.2407	16.8016	121.9991	-18.7811	-6.4270	
4.0170	-7.9022	2.9373	-11.7868	0.0000	1.2500	-0.0000	66.4215	6.6651	-5.7449	72.8919	9.9101	-11.9345	-0.0000	50.3638	-7.6769	-4.6980	82.5585	-10.4001	1.9897	0.0000	-15.3755	-1.0143	0.0504	87.0119	9.1535	12.1535	7.2264	115.5531	-27.3597	-11.6947	87.3745	-7.9335	27.1753	16.9383	122.1165	-18.7103	-6.3429	
4.0330	-7.9289	2.9419	-11.5844	0.0000	1.2500	-0.0000	62.9224	5.9049	-6.4237	67.1725	8.8024	-11.8095	0.0000	53.0967	-8.1003	-4.2758	87.4521	-9.6517	1.9948	0.0000	-15.3926	-1.0691	0.0407	87.1174	9.3623	11.4931	6.9223	115.3554	-27.8977	-12.0459	87.8414	-7.8472	27.0341	17.1377	122.3344	-18.6179	-6.2199	
4.0500	-7.9511	2.9712	-11.3347	0.0000	1.2500	-0.0000	59.3473	5.0746	-7.0236	61.6795	7.4722	-11.4333	-0.0000	55.9122	-8.4637	-3.6566	91.9685	-8.8447	2.0265	-0.0000	-15.3953	-1.1201	0.0187	87.1525	9.4901	10.9979	6.6619	115.0404	-28.3744	-12.4054	88.3970	-7.7397	26.7139	17.3006	122.7372	-18.5091	-6.0637	
4.0670	-7.9624	3.0403	-11.0414	0.0000	1.2500	-0.0000	55.6632	4.1219	-7.5066	56.3843	5.8278	-10.6195	-0.0000	58.8115	-8.7382	-2.7291	96.0940	-8.0053	2.1474	-0.0000	-15.3776	-1.1709	-0.0101	87.0841	9.4977	10.7867	6.4697	114.5275	-28.7069	-12.7313	89.1034	-7.5687	26.1727	17.3651	123.3448	-18.3573	-5.8483	
4.0830	-7.9689	3.1343	-10.7007	0.0000	1.2500	-0.0000	51.9045	3.0845	-7.9450	51.3397	3.9449	-9.5397	0.0000	61.7962	-8.9159	-1.6217	99.8454	-7.1142	2.3077	-0.0000	-15.3457	-1.2181	-0.0511	86.9419	9.4254	10.7408	6.3175	113.8988	-28.9707	-13.0497	89.8999	-7.3758	25.4520	17.3867	124.1363	-18.1897	-5.6002	
4.1000	-7.9770	3.2350	-10.3182	0.0000	1.2500	-0.0000	48.4507	2.0884	-8.2985	47.0390	1.9852	-8.5629	-0.0000	64.7433	-8.9914	-0.4764	103.0175	-6.0101	2.2287	0.0000	-15.3058	-1.2524	-0.1209	86.7260	9.2875	10.7811	6.2489	113.3694	-29.2133	-13.3572	90.5966	-7.2764	24.5727	17.4367	125.1338	-18.0920	-5.4041	
4.1170	-7.9807	3.3320	-9.8627	0.0000	1.2500	-0.0000	45.3870	1.1247	-8.4572	43.5787	-0.1972	-7.7874	-0.0000	67.6547	-8.9548	0.7029	105.5881	-4.4659	1.7319	0.0000	-15.2529	-1.2631	-0.2350	86.3940	9.0392	10.8912	6.3139	113.0575	-29.4524	-13.6654	91.1504	-7.3580	23.3366	17.5278	126.5518	-18.1168	-5.2974	
4.1330	-7.9857	3.4359	-9.3654	0.0000	1.2500	-0.0000	42.6283	0.1755	-8.5095	40.8447	-2.4404	-7.1230	0.0000	70.5233	-8.8117	1.9000	107.5747	-2.7071	0.9835	-0.0000	-15.1918	-1.2613	-0.3780	85.9887	8.7246	11.0857	6.4677	112.8463	-29.6684	-13.9589	91.5975	-7.5394	21.9419	17.6122	128.1694	-18.2107	-5.2421	
4.1500	-8.0172	3.5605	-8.9274	0.0000	1.2500	-0.0000	40.2990	-0.6461	-8.6699	39.0003	-4.1116	-6.6505	0.0000	73.2095	-8.6142	2.9668	108.8335	-1.2500	0.2352	0.0000	-15.1428	-1.2697	-0.5187	85.6400	8.4906	11.3336	6.6127	112.5987	-29.8542	-14.1975	91.8726	-7.6764	21.0046	17.7101	129.3607	-18.3004	-5.2094	
4.1670	-8.0952	3.7295	-8.5594	0.0000	1.2500	-0.0000	38.3981	-1.3154	-9.0459	38.0371	-4.9386	-6.4067	-0.0000	75.7749	-8.4092	3.9057	109.3059	-0.3327	-0.4394	-0.0000	-15.1127	-1.3010	-0.6550	85.3755	8.4064	11.6794	6.7178	112.2222	-30.0219	-14.3771	91.8858	-7.6946	20.9649	17.8964	129.7205	-18.3593	-5.1952	
4.1830	-8.1996	3.9198	-8.2503	0.0000	1.2500	-0.0000	36.9290	-1.8618	-9.4901	37.9464	-5.1926	-6.3366	-0.0000	78.1559	-8.1842	4.7245	109.0517	0.2770	-1.0876	0.0000	-15.0947	-1.3417	-0.7891	85.1682	8.4010	12.0807	6.8122	111.8092	-30.1582	-14.5012	91.7328	-7.6656	21.3833	18.1377	129.6601	-18.4138	-5.2032	
4.2000	-8.2961	4.0743	-8.0686	0.0000	1.2500	-0.0000	36.0250	-2.2563	-9.8173	38.8978	-5.0602	-6.3782	-0.0000	80.0250	-7.9302	5.3040	108.1033	0.7743	-1.6519	-0.0000	-15.0889	-1.3752	-0.8963	85.0655	8.4116	12.3777	6.8878	111.5004	-30.2180	-14.5412	91.6325	-7.6555	21.5556	18.3226	129.7801	-18.4713	-5.2183	
